<?xml version="1.0" encoding="UTF-8"?><svg id="Livello_2" xmlns="http://www.w3.org/2000/svg" viewBox="0 0 162.22 52.92"><defs><style>.cls-1{fill:#fff;stroke-width:0px;}</style></defs><g id="Livello_1-2"><path class="cls-1" d="M40.83,9.65c-3.89-3.31-8.93-5.33-14.4-5.33C14.19,4.32,4.32,14.26,4.32,26.5s9.86,22.11,22.11,22.11c6.19,0,11.74-2.52,15.77-6.55l3.53,2.52c-4.82,5.11-11.67,8.35-19.3,8.35C11.81,52.92,0,41.12,0,26.5S11.81,0,26.43,0c6.84,0,12.96,2.59,17.71,6.84l-3.31,2.81ZM35.57,13.75c-2.59-1.87-5.76-2.95-9.22-2.95-8.64,0-15.63,7.06-15.63,15.7s6.98,15.62,15.63,15.62c3.96,0,7.63-1.44,10.37-3.89l3.67,2.59c-3.6,3.46-8.57,5.62-13.97,5.62-11.02,0-19.95-8.93-19.95-19.95S15.41,6.48,26.43,6.48c4.75,0,9.15,1.73,12.6,4.54l-3.46,2.74Z"/><path class="cls-1" d="M51.48,1.08h4.32v50.76h-4.32V1.08ZM57.96,1.08h4.32v39.96h21.6v4.32h-21.6v2.16h21.6v4.32h-25.92V1.08Z"/><path class="cls-1" d="M90.14,1.08h4.32v50.76h-4.32V1.08ZM96.62,1.08h4.32v50.76h-4.32V1.08Z"/><path class="cls-1" d="M135.72,0c14.62,0,26.5,11.88,26.5,26.5s-11.88,26.43-26.5,26.43-26.43-11.81-26.43-26.43S121.1,0,135.72,0ZM135.72,48.6c12.24,0,22.18-9.86,22.18-22.11s-9.94-22.18-22.18-22.18-22.11,9.94-22.11,22.18,9.86,22.11,22.11,22.11ZM135.72,6.48c11.02,0,20.02,9,20.02,20.02s-9,19.95-20.02,19.95-19.95-8.93-19.95-19.95,8.93-20.02,19.95-20.02ZM135.65,42.12c8.64,0,15.7-6.98,15.7-15.62s-7.06-15.7-15.7-15.7-15.63,7.06-15.63,15.7,6.98,15.62,15.63,15.62Z"/></g></svg>